<svg xmlns="http://www.w3.org/2000/svg" xmlns:xlink="http://www.w3.org/1999/xlink" version="1.1" x="0px" y="0px" viewBox="0 0 30.1 30.1" enable-background="new 0 0 30.1 30.1" xml:space="preserve" style="fill: rgb(0, 0, 0);" role="img" aria-label="Message Envelope" width="15" height="17">
<g id="__id54_s6f8do1ysk"><path id="__id55_s6f8do1ysk" d="M24.4,0H5.6C2.5,0,0,2.5,0,5.6v18.8c0,3.1,2.5,5.6,5.6,5.6h18.8c3.1,0,5.6-2.5,5.6-5.6V5.6  C30.1,2.5,27.6,0,24.4,0z M24.8,21c0,1-0.8,1.7-1.7,1.7H7c-1,0-1.7-0.8-1.7-1.7v-8.6C5.6,12.7,6,13,6.4,13.3  c1.8,1.2,3.6,2.5,5.4,3.8c0.9,0.7,2,1.5,3.2,1.5h0h0c1.2,0,2.3-0.8,3.2-1.5c1.8-1.3,3.6-2.5,5.4-3.8c0.4-0.3,0.8-0.6,1.1-0.9V21z   M22.9,12.1c-1.7,1.2-3.4,2.4-5.1,3.5c-0.7,0.5-1.9,1.5-2.8,1.5h0h0c-0.9,0-2.1-1-2.8-1.5c-1.7-1.2-3.4-2.4-5.1-3.5  c-0.8-0.5-1.9-1.8-1.9-2.7c0-1.1,0.6-2,1.7-2h16c0.9,0,1.7,0.8,1.7,1.7C24.8,10.3,23.9,11.4,22.9,12.1z" style="fill: rgb(72, 72, 72);"></path></g>
<g id="__id56_s6f8do1ysk">
	<g id="__id57_s6f8do1ysk"><path id="__id58_s6f8do1ysk" d="M54.5,8.9c-1.6,0-2.9,1.3-2.9,2.9c0,0.1,0.1,0.3,0.3,0.3c0.1,0,0.3-0.1,0.3-0.3   c0-1.3,1.1-2.4,2.4-2.4c0.1,0,0.3-0.1,0.3-0.3C54.8,9.1,54.7,8.9,54.5,8.9z" style="fill: rgb(72, 72, 72);"></path></g>
	<g id="__id59_s6f8do1ysk"><path id="__id60_s6f8do1ysk" d="M63.9,0H45.1c-3.1,0-5.6,2.5-5.6,5.6v18.8c0,3.1,2.5,5.6,5.6,5.6h18.8   c3.1,0,5.6-2.5,5.6-5.6V5.6C69.6,2.5,67.1,0,63.9,0z M55.6,21.9c0,0.3-0.2,0.5-0.5,0.5H54c-0.3,0-0.5-0.2-0.5-0.5v-5.4   c0.3,0.1,0.7,0.1,1.1,0.1s0.7,0,1.1-0.1V21.9z M54.5,16.1c-2.3,0-4.2-1.9-4.2-4.2s1.9-4.2,4.2-4.2s4.2,1.9,4.2,4.2   S56.9,16.1,54.5,16.1z" style="fill: rgb(72, 72, 72);"></path></g>
</g>
<g id="__id61_s6f8do1ysk"><path id="__id62_s6f8do1ysk" d="M-12.6,0h-18.8C-34.5,0-37,2.5-37,5.6v18.8c0,3.1,2.5,5.6,5.6,5.6h18.8  c3.1,0,5.6-2.5,5.6-5.6V5.6C-6.9,2.5-9.4,0-12.6,0z M-14.6,21c-0.2,0.5-0.8,0.9-1.3,1.2c-0.6,0.3-1.3,0.6-2,0.6  c-1,0-1.9-0.4-2.9-0.8c-0.7-0.2-1.3-0.5-1.9-0.9c-1.9-1.1-4.1-3.4-5.2-5.2c-0.4-0.6-0.7-1.2-0.9-1.9c-0.3-0.9-0.8-1.8-0.8-2.9  c0-0.7,0.2-1.4,0.6-2c0.3-0.5,0.6-1.1,1.2-1.3c0.4-0.2,1.1-0.3,1.5-0.3c0.1,0,0.2,0,0.2,0c0.2,0.1,0.5,0.6,0.6,0.8  c0.3,0.6,0.7,1.3,1,1.9c0.2,0.3,0.5,0.6,0.5,1c0,0.7-2,1.6-2,2.2c0,0.3,0.3,0.7,0.4,0.9c1.1,2,2.5,3.4,4.5,4.5  c0.3,0.2,0.6,0.4,0.9,0.4c0.6,0,1.6-2,2.2-2c0.3,0,0.7,0.3,1,0.5c0.6,0.4,1.2,0.7,1.9,1c0.2,0.1,0.8,0.3,0.8,0.6c0,0.1,0,0.2,0,0.2  C-14.3,19.9-14.4,20.7-14.6,21z" style="fill: rgb(72, 72, 72);"></path></g>
<g id="__id63_s6f8do1ysk"><path id="__id64_s6f8do1ysk" d="M102.4,0H83.6C80.5,0,78,2.5,78,5.6v18.8c0,3.1,2.5,5.6,5.6,5.6h18.8c3.1,0,5.6-2.5,5.6-5.6  V5.6C108.1,2.5,105.6,0,102.4,0z M88.8,22.5h-3.3v-10h3.3V22.5z M87.1,11.1L87.1,11.1c-1.1,0-1.9-0.8-1.9-1.7c0-1,0.7-1.7,1.9-1.7  c1.1,0,1.9,0.7,1.9,1.7C89,10.3,88.3,11.1,87.1,11.1z M100.8,22.5h-3.3v-5.4c0-1.3-0.5-2.3-1.7-2.3c-0.9,0-1.5,0.6-1.7,1.2  C94,16.3,94,16.6,94,16.9v5.6h-3.3c0-9.1,0-10,0-10H94v1.4c0.4-0.7,1.2-1.7,3-1.7c2.2,0,3.8,1.4,3.8,4.5V22.5z" style="fill: rgb(72, 72, 72);"></path></g>
</svg>