<svg xmlns="http://www.w3.org/2000/svg" xmlns:xlink="http://www.w3.org/1999/xlink" version="1.1" x="0px" y="0px" viewBox="0 0 30.1 30.1" enable-background="new 0 0 30.1 30.1" xml:space="preserve" style="fill: rgb(0, 0, 0);" role="img" aria-label="Call Symbol" width="15" height="17">
<g id="__id76_sxeac4vvd"><path id="__id77_sxeac4vvd" d="M61.4,0H42.6C39.5,0,37,2.5,37,5.6v18.8c0,3.1,2.5,5.6,5.6,5.6h18.8c3.1,0,5.6-2.5,5.6-5.6  V5.6C67.1,2.5,64.6,0,61.4,0z M61.8,21c0,1-0.8,1.7-1.7,1.7H44c-1,0-1.7-0.8-1.7-1.7v-8.6c0.3,0.4,0.7,0.7,1.1,0.9  c1.8,1.2,3.6,2.5,5.4,3.8c0.9,0.7,2,1.5,3.2,1.5h0h0c1.2,0,2.3-0.8,3.2-1.5c1.8-1.3,3.6-2.5,5.4-3.8c0.4-0.3,0.8-0.6,1.1-0.9V21z   M59.9,12.1c-1.7,1.2-3.4,2.4-5.1,3.5c-0.7,0.5-1.9,1.5-2.8,1.5h0h0c-0.9,0-2.1-1-2.8-1.5c-1.7-1.2-3.4-2.4-5.1-3.5  c-0.8-0.5-1.9-1.8-1.9-2.7c0-1.1,0.6-2,1.7-2h16c0.9,0,1.7,0.8,1.7,1.7C61.8,10.3,60.9,11.4,59.9,12.1z" style="fill: rgb(72, 72, 72);"></path></g>
<g id="__id78_sxeac4vvd">
	<g id="__id79_sxeac4vvd"><path id="__id80_sxeac4vvd" d="M91.5,8.9c-1.6,0-2.9,1.3-2.9,2.9c0,0.1,0.1,0.3,0.3,0.3c0.1,0,0.3-0.1,0.3-0.3   c0-1.3,1.1-2.4,2.4-2.4c0.1,0,0.3-0.1,0.3-0.3C91.8,9.1,91.7,8.9,91.5,8.9z" style="fill: rgb(72, 72, 72);"></path></g>
	<g id="__id81_sxeac4vvd"><path id="__id82_sxeac4vvd" d="M100.9,0H82.1c-3.1,0-5.6,2.5-5.6,5.6v18.8c0,3.1,2.5,5.6,5.6,5.6h18.8   c3.1,0,5.6-2.5,5.6-5.6V5.6C106.6,2.5,104.1,0,100.9,0z M92.6,21.9c0,0.3-0.2,0.5-0.5,0.5H91c-0.3,0-0.5-0.2-0.5-0.5v-5.4   c0.3,0.1,0.7,0.1,1.1,0.1s0.7,0,1.1-0.1V21.9z M91.5,16.1c-2.3,0-4.2-1.9-4.2-4.2s1.9-4.2,4.2-4.2s4.2,1.9,4.2,4.2   S93.9,16.1,91.5,16.1z" style="fill: rgb(72, 72, 72);"></path></g>
</g>
<g id="__id83_sxeac4vvd"><path id="__id84_sxeac4vvd" d="M24.4,0H5.6C2.5,0,0,2.5,0,5.6v18.8c0,3.1,2.5,5.6,5.6,5.6h18.8c3.1,0,5.6-2.5,5.6-5.6V5.6  C30.1,2.5,27.6,0,24.4,0z M22.4,21c-0.2,0.5-0.8,0.9-1.3,1.2c-0.6,0.3-1.3,0.6-2,0.6c-1,0-1.9-0.4-2.9-0.8c-0.7-0.2-1.3-0.5-1.9-0.9  c-1.9-1.1-4.1-3.4-5.2-5.2c-0.4-0.6-0.7-1.2-0.9-1.9c-0.3-0.9-0.8-1.8-0.8-2.9c0-0.7,0.2-1.4,0.6-2c0.3-0.5,0.6-1.1,1.2-1.3  c0.4-0.2,1.1-0.3,1.5-0.3c0.1,0,0.2,0,0.2,0C11,7.5,11.3,8,11.4,8.2c0.3,0.6,0.7,1.3,1,1.9c0.2,0.3,0.5,0.6,0.5,1c0,0.7-2,1.6-2,2.2  c0,0.3,0.3,0.7,0.4,0.9c1.1,2,2.5,3.4,4.5,4.5c0.3,0.2,0.6,0.4,0.9,0.4c0.6,0,1.6-2,2.2-2c0.3,0,0.7,0.3,1,0.5  c0.6,0.4,1.2,0.7,1.9,1c0.2,0.1,0.8,0.3,0.8,0.6c0,0.1,0,0.2,0,0.2C22.7,19.9,22.6,20.7,22.4,21z" style="fill: rgb(72, 72, 72);"></path></g>
<g id="__id85_sxeac4vvd"><path id="__id86_sxeac4vvd" d="M139.4,0h-18.8c-3.1,0-5.6,2.5-5.6,5.6v18.8c0,3.1,2.5,5.6,5.6,5.6h18.8  c3.1,0,5.6-2.5,5.6-5.6V5.6C145.1,2.5,142.6,0,139.4,0z M125.8,22.5h-3.3v-10h3.3V22.5z M124.1,11.1L124.1,11.1  c-1.1,0-1.9-0.8-1.9-1.7c0-1,0.7-1.7,1.9-1.7c1.1,0,1.9,0.7,1.9,1.7C126,10.3,125.3,11.1,124.1,11.1z M137.8,22.5h-3.3v-5.4  c0-1.3-0.5-2.3-1.7-2.3c-0.9,0-1.5,0.6-1.7,1.2c-0.1,0.2-0.1,0.5-0.1,0.8v5.6h-3.3c0-9.1,0-10,0-10h3.3v1.4c0.4-0.7,1.2-1.7,3-1.7  c2.2,0,3.8,1.4,3.8,4.5V22.5z" style="fill: rgb(72, 72, 72);"></path></g>
</svg>